<?xml version="1.0" encoding="utf-8"?>
<!-- Generator: Adobe Illustrator 19.1.0, SVG Export Plug-In . SVG Version: 6.00 Build 0)  -->
<svg version="1.1" id="Layer_1" xmlns="http://www.w3.org/2000/svg" xmlns:xlink="http://www.w3.org/1999/xlink" x="0px" y="0px"
	 viewBox="0 0 1280 720" style="enable-background:new 0 0 1280 720;" xml:space="preserve">
<style type="text/css">
	.st0{fill:#FBB040;}
	.st1{fill:#F7941E;}
	.st2{fill:#7CD3F7;}
	.st3{fill:none;stroke:#F8B52D;stroke-width:24;stroke-miterlimit:10;}
	.st4{fill:#F8B52D;}
</style>
<g>
	<g>
		<g>
			<g>
				<rect x="945" y="563.3" class="st0" width="77.3" height="77.3"/>
				<path class="st1" d="M1004.8,633h-42.2c-5.5,0-10-4.5-10-10v-42.2c0-5.5,4.5-10,10-10h42.2c5.5,0,10,4.5,10,10V623
					C1014.8,628.5,1010.3,633,1004.8,633z"/>
				<rect x="1022.3" y="563.3" class="st1" width="77.3" height="77.3"/>
				<path class="st0" d="M1082.1,633h-42.2c-5.5,0-10-4.5-10-10v-42.2c0-5.5,4.5-10,10-10h42.2c5.5,0,10,4.5,10,10V623
					C1092.1,628.5,1087.6,633,1082.1,633z"/>
				<rect x="1022.3" y="486" class="st0" width="77.3" height="77.3"/>
				<path class="st1" d="M1039.9,555.7h42.2c5.5,0,10-4.5,10-10v-42.2c0-5.5-4.5-10-10-10h-42.2c-5.5,0-10,4.5-10,10v42.2
					C1029.9,551.2,1034.4,555.7,1039.9,555.7z"/>
				<rect x="945" y="486" class="st1" width="77.3" height="77.3"/>
				<path class="st0" d="M962.6,555.7h42.2c5.5,0,10-4.5,10-10v-42.2c0-5.5-4.5-10-10-10h-42.2c-5.5,0-10,4.5-10,10v42.2
					C952.6,551.2,957.1,555.7,962.6,555.7z"/>
			</g>
			<g>
				<rect x="1099.6" y="563.3" class="st0" width="77.3" height="77.3"/>
				<path class="st1" d="M1159.4,633h-42.2c-5.5,0-10-4.5-10-10v-42.2c0-5.5,4.5-10,10-10h42.2c5.5,0,10,4.5,10,10V623
					C1169.4,628.5,1164.9,633,1159.4,633z"/>
				<rect x="1176.9" y="563.3" class="st1" width="77.3" height="77.3"/>
				<path class="st0" d="M1236.7,633h-42.2c-5.5,0-10-4.5-10-10v-42.2c0-5.5,4.5-10,10-10h42.2c5.5,0,10,4.5,10,10V623
					C1246.7,628.5,1242.2,633,1236.7,633z"/>
				<rect x="1176.9" y="486" class="st0" width="77.3" height="77.3"/>
				<path class="st1" d="M1194.5,555.7h42.2c5.5,0,10-4.5,10-10v-42.2c0-5.5-4.5-10-10-10h-42.2c-5.5,0-10,4.5-10,10v42.2
					C1184.5,551.2,1189,555.7,1194.5,555.7z"/>
				<rect x="1099.6" y="486" class="st1" width="77.3" height="77.3"/>
				<path class="st0" d="M1117.2,555.7h42.2c5.5,0,10-4.5,10-10v-42.2c0-5.5-4.5-10-10-10h-42.2c-5.5,0-10,4.5-10,10v42.2
					C1107.2,551.2,1111.7,555.7,1117.2,555.7z"/>
			</g>
			<g>
				<rect x="635.8" y="563.3" class="st0" width="77.3" height="77.3"/>
				<path class="st1" d="M695.6,633h-42.2c-5.5,0-10-4.5-10-10v-42.2c0-5.5,4.5-10,10-10h42.2c5.5,0,10,4.5,10,10V623
					C705.6,628.5,701.1,633,695.6,633z"/>
				<rect x="713.1" y="563.3" class="st1" width="77.3" height="77.3"/>
				<path class="st0" d="M772.9,633h-42.2c-5.5,0-10-4.5-10-10v-42.2c0-5.5,4.5-10,10-10h42.2c5.5,0,10,4.5,10,10V623
					C782.9,628.5,778.4,633,772.9,633z"/>
				<rect x="713.1" y="486" class="st0" width="77.3" height="77.3"/>
				<path class="st1" d="M730.7,555.7h42.2c5.5,0,10-4.5,10-10v-42.2c0-5.5-4.5-10-10-10h-42.2c-5.5,0-10,4.5-10,10v42.2
					C720.7,551.2,725.2,555.7,730.7,555.7z"/>
				<rect x="635.8" y="486" class="st1" width="77.3" height="77.3"/>
				<path class="st0" d="M653.4,555.7h42.2c5.5,0,10-4.5,10-10v-42.2c0-5.5-4.5-10-10-10h-42.2c-5.5,0-10,4.5-10,10v42.2
					C643.4,551.2,647.9,555.7,653.4,555.7z"/>
			</g>
			<g>
				<rect x="790.4" y="563.3" class="st0" width="77.3" height="77.3"/>
				<path class="st1" d="M850.2,633H808c-5.5,0-10-4.5-10-10v-42.2c0-5.5,4.5-10,10-10h42.2c5.5,0,10,4.5,10,10V623
					C860.2,628.5,855.7,633,850.2,633z"/>
				<rect x="867.7" y="563.3" class="st1" width="77.3" height="77.3"/>
				<path class="st0" d="M927.5,633h-42.2c-5.5,0-10-4.5-10-10v-42.2c0-5.5,4.5-10,10-10h42.2c5.5,0,10,4.5,10,10V623
					C937.5,628.5,933,633,927.5,633z"/>
				<rect x="867.7" y="486" class="st0" width="77.3" height="77.3"/>
				<path class="st1" d="M885.3,555.7h42.2c5.5,0,10-4.5,10-10v-42.2c0-5.5-4.5-10-10-10h-42.2c-5.5,0-10,4.5-10,10v42.2
					C875.3,551.2,879.8,555.7,885.3,555.7z"/>
				<rect x="790.4" y="486" class="st1" width="77.3" height="77.3"/>
				<path class="st0" d="M808,555.7h42.2c5.5,0,10-4.5,10-10v-42.2c0-5.5-4.5-10-10-10H808c-5.5,0-10,4.5-10,10v42.2
					C798,551.2,802.5,555.7,808,555.7z"/>
			</g>
			<g>
				<rect x="945" y="408.7" class="st0" width="77.3" height="77.3"/>
				<path class="st1" d="M1004.8,478.4h-42.2c-5.5,0-10-4.5-10-10v-42.2c0-5.5,4.5-10,10-10h42.2c5.5,0,10,4.5,10,10v42.2
					C1014.8,473.9,1010.3,478.4,1004.8,478.4z"/>
				<rect x="1022.3" y="408.7" class="st1" width="77.3" height="77.3"/>
				<path class="st0" d="M1082.1,478.4h-42.2c-5.5,0-10-4.5-10-10v-42.2c0-5.5,4.5-10,10-10h42.2c5.5,0,10,4.5,10,10v42.2
					C1092.1,473.9,1087.6,478.4,1082.1,478.4z"/>
				<rect x="1022.3" y="331.4" class="st0" width="77.3" height="77.3"/>
				<path class="st1" d="M1039.9,401.1h42.2c5.5,0,10-4.5,10-10v-42.2c0-5.5-4.5-10-10-10h-42.2c-5.5,0-10,4.5-10,10v42.2
					C1029.9,396.6,1034.4,401.1,1039.9,401.1z"/>
				<rect x="945" y="331.4" class="st1" width="77.3" height="77.3"/>
				<path class="st0" d="M962.6,401.1h42.2c5.5,0,10-4.5,10-10v-42.2c0-5.5-4.5-10-10-10h-42.2c-5.5,0-10,4.5-10,10v42.2
					C952.6,396.6,957.1,401.1,962.6,401.1z"/>
			</g>
			<g>
				<rect x="1099.6" y="408.7" class="st0" width="77.3" height="77.3"/>
				<path class="st1" d="M1159.4,478.4h-42.2c-5.5,0-10-4.5-10-10v-42.2c0-5.5,4.5-10,10-10h42.2c5.5,0,10,4.5,10,10v42.2
					C1169.4,473.9,1164.9,478.4,1159.4,478.4z"/>
				<rect x="1176.9" y="408.7" class="st1" width="77.3" height="77.3"/>
				<path class="st0" d="M1236.7,478.4h-42.2c-5.5,0-10-4.5-10-10v-42.2c0-5.5,4.5-10,10-10h42.2c5.5,0,10,4.5,10,10v42.2
					C1246.7,473.9,1242.2,478.4,1236.7,478.4z"/>
				<rect x="1176.9" y="331.4" class="st0" width="77.3" height="77.3"/>
				<path class="st1" d="M1194.5,401.1h42.2c5.5,0,10-4.5,10-10v-42.2c0-5.5-4.5-10-10-10h-42.2c-5.5,0-10,4.5-10,10v42.2
					C1184.5,396.6,1189,401.1,1194.5,401.1z"/>
				<rect x="1099.6" y="331.4" class="st1" width="77.3" height="77.3"/>
				<path class="st0" d="M1117.2,401.1h42.2c5.5,0,10-4.5,10-10v-42.2c0-5.5-4.5-10-10-10h-42.2c-5.5,0-10,4.5-10,10v42.2
					C1107.2,396.6,1111.7,401.1,1117.2,401.1z"/>
			</g>
			<g>
				<rect x="635.8" y="408.7" class="st0" width="77.3" height="77.3"/>
				<path class="st1" d="M695.6,478.4h-42.2c-5.5,0-10-4.5-10-10v-42.2c0-5.5,4.5-10,10-10h42.2c5.5,0,10,4.5,10,10v42.2
					C705.6,473.9,701.1,478.4,695.6,478.4z"/>
				<rect x="713.1" y="408.7" class="st1" width="77.3" height="77.3"/>
				<path class="st0" d="M772.9,478.4h-42.2c-5.5,0-10-4.5-10-10v-42.2c0-5.5,4.5-10,10-10h42.2c5.5,0,10,4.5,10,10v42.2
					C782.9,473.9,778.4,478.4,772.9,478.4z"/>
				<rect x="713.1" y="331.4" class="st0" width="77.3" height="77.3"/>
				<path class="st1" d="M730.7,401.1h42.2c5.5,0,10-4.5,10-10v-42.2c0-5.5-4.5-10-10-10h-42.2c-5.5,0-10,4.5-10,10v42.2
					C720.7,396.6,725.2,401.1,730.7,401.1z"/>
				<rect x="635.8" y="331.4" class="st1" width="77.3" height="77.3"/>
				<path class="st0" d="M653.4,401.1h42.2c5.5,0,10-4.5,10-10v-42.2c0-5.5-4.5-10-10-10h-42.2c-5.5,0-10,4.5-10,10v42.2
					C643.4,396.6,647.9,401.1,653.4,401.1z"/>
			</g>
			<g>
				<rect x="790.4" y="408.7" class="st0" width="77.3" height="77.3"/>
				<path class="st1" d="M850.2,478.4H808c-5.5,0-10-4.5-10-10v-42.2c0-5.5,4.5-10,10-10h42.2c5.5,0,10,4.5,10,10v42.2
					C860.2,473.9,855.7,478.4,850.2,478.4z"/>
				<rect x="867.7" y="408.7" class="st1" width="77.3" height="77.3"/>
				<path class="st0" d="M927.5,478.4h-42.2c-5.5,0-10-4.5-10-10v-42.2c0-5.5,4.5-10,10-10h42.2c5.5,0,10,4.5,10,10v42.2
					C937.5,473.9,933,478.4,927.5,478.4z"/>
				<rect x="867.7" y="331.4" class="st0" width="77.3" height="77.3"/>
				<path class="st1" d="M885.3,401.1h42.2c5.5,0,10-4.5,10-10v-42.2c0-5.5-4.5-10-10-10h-42.2c-5.5,0-10,4.5-10,10v42.2
					C875.3,396.6,879.8,401.1,885.3,401.1z"/>
				<rect x="790.4" y="331.4" class="st1" width="77.3" height="77.3"/>
				<path class="st0" d="M808,401.1h42.2c5.5,0,10-4.5,10-10v-42.2c0-5.5-4.5-10-10-10H808c-5.5,0-10,4.5-10,10v42.2
					C798,396.6,802.5,401.1,808,401.1z"/>
			</g>
			<g>
				<rect x="945" y="254.1" class="st0" width="77.3" height="77.3"/>
				<path class="st1" d="M1004.8,323.8h-42.2c-5.5,0-10-4.5-10-10v-42.2c0-5.5,4.5-10,10-10h42.2c5.5,0,10,4.5,10,10v42.2
					C1014.8,319.3,1010.3,323.8,1004.8,323.8z"/>
				<rect x="1022.3" y="254.1" class="st1" width="77.3" height="77.3"/>
				<path class="st0" d="M1082.1,323.8h-42.2c-5.5,0-10-4.5-10-10v-42.2c0-5.5,4.5-10,10-10h42.2c5.5,0,10,4.5,10,10v42.2
					C1092.1,319.3,1087.6,323.8,1082.1,323.8z"/>
				<rect x="1022.3" y="176.8" class="st0" width="77.3" height="77.3"/>
				<path class="st1" d="M1039.9,246.5h42.2c5.5,0,10-4.5,10-10v-42.2c0-5.5-4.5-10-10-10h-42.2c-5.5,0-10,4.5-10,10v42.2
					C1029.9,242,1034.4,246.5,1039.9,246.5z"/>
				<rect x="945" y="176.8" class="st1" width="77.3" height="77.3"/>
				<path class="st0" d="M962.6,246.5h42.2c5.5,0,10-4.5,10-10v-42.2c0-5.5-4.5-10-10-10h-42.2c-5.5,0-10,4.5-10,10v42.2
					C952.6,242,957.1,246.5,962.6,246.5z"/>
			</g>
			<g>
				<rect x="1099.6" y="254.1" class="st0" width="77.3" height="77.3"/>
				<path class="st1" d="M1159.4,323.8h-42.2c-5.5,0-10-4.5-10-10v-42.2c0-5.5,4.5-10,10-10h42.2c5.5,0,10,4.5,10,10v42.2
					C1169.4,319.3,1164.9,323.8,1159.4,323.8z"/>
				<rect x="1176.9" y="254.1" class="st1" width="77.3" height="77.3"/>
				<path class="st0" d="M1236.7,323.8h-42.2c-5.5,0-10-4.5-10-10v-42.2c0-5.5,4.5-10,10-10h42.2c5.5,0,10,4.5,10,10v42.2
					C1246.7,319.3,1242.2,323.8,1236.7,323.8z"/>
				<rect x="1176.9" y="176.8" class="st0" width="77.3" height="77.3"/>
				<path class="st1" d="M1194.5,246.5h42.2c5.5,0,10-4.5,10-10v-42.2c0-5.5-4.5-10-10-10h-42.2c-5.5,0-10,4.5-10,10v42.2
					C1184.5,242,1189,246.5,1194.5,246.5z"/>
				<rect x="1099.6" y="176.8" class="st1" width="77.3" height="77.3"/>
				<path class="st0" d="M1117.2,246.5h42.2c5.5,0,10-4.5,10-10v-42.2c0-5.5-4.5-10-10-10h-42.2c-5.5,0-10,4.5-10,10v42.2
					C1107.2,242,1111.7,246.5,1117.2,246.5z"/>
			</g>
			<g>
				<rect x="635.8" y="254.1" class="st0" width="77.3" height="77.3"/>
				<path class="st1" d="M695.6,323.8h-42.2c-5.5,0-10-4.5-10-10v-42.2c0-5.5,4.5-10,10-10h42.2c5.5,0,10,4.5,10,10v42.2
					C705.6,319.3,701.1,323.8,695.6,323.8z"/>
				<rect x="713.1" y="254.1" class="st1" width="77.3" height="77.3"/>
				<path class="st0" d="M772.9,323.8h-42.2c-5.5,0-10-4.5-10-10v-42.2c0-5.5,4.5-10,10-10h42.2c5.5,0,10,4.5,10,10v42.2
					C782.9,319.3,778.4,323.8,772.9,323.8z"/>
				<rect x="713.1" y="176.8" class="st0" width="77.3" height="77.3"/>
				<path class="st1" d="M730.7,246.5h42.2c5.5,0,10-4.5,10-10v-42.2c0-5.5-4.5-10-10-10h-42.2c-5.5,0-10,4.5-10,10v42.2
					C720.7,242,725.2,246.5,730.7,246.5z"/>
				<rect x="635.8" y="176.8" class="st1" width="77.3" height="77.3"/>
				<path class="st0" d="M653.4,246.5h42.2c5.5,0,10-4.5,10-10v-42.2c0-5.5-4.5-10-10-10h-42.2c-5.5,0-10,4.5-10,10v42.2
					C643.4,242,647.9,246.5,653.4,246.5z"/>
			</g>
			<g>
				<rect x="790.4" y="254.1" class="st0" width="77.3" height="77.3"/>
				<path class="st1" d="M850.2,323.8H808c-5.5,0-10-4.5-10-10v-42.2c0-5.5,4.5-10,10-10h42.2c5.5,0,10,4.5,10,10v42.2
					C860.2,319.3,855.7,323.8,850.2,323.8z"/>
				<rect x="867.7" y="254.1" class="st1" width="77.3" height="77.3"/>
				<path class="st0" d="M927.5,323.8h-42.2c-5.5,0-10-4.5-10-10v-42.2c0-5.5,4.5-10,10-10h42.2c5.5,0,10,4.5,10,10v42.2
					C937.5,319.3,933,323.8,927.5,323.8z"/>
				<rect x="867.7" y="176.8" class="st0" width="77.3" height="77.3"/>
				<path class="st1" d="M885.3,246.5h42.2c5.5,0,10-4.5,10-10v-42.2c0-5.5-4.5-10-10-10h-42.2c-5.5,0-10,4.5-10,10v42.2
					C875.3,242,879.8,246.5,885.3,246.5z"/>
				<rect x="790.4" y="176.8" class="st1" width="77.3" height="77.3"/>
				<path class="st0" d="M808,246.5h42.2c5.5,0,10-4.5,10-10v-42.2c0-5.5-4.5-10-10-10H808c-5.5,0-10,4.5-10,10v42.2
					C798,242,802.5,246.5,808,246.5z"/>
			</g>
			<g>
				<rect x="945" y="99.5" class="st0" width="77.3" height="77.3"/>
				<path class="st1" d="M1004.8,169.2h-42.2c-5.5,0-10-4.5-10-10V117c0-5.5,4.5-10,10-10h42.2c5.5,0,10,4.5,10,10v42.2
					C1014.8,164.7,1010.3,169.2,1004.8,169.2z"/>
				<rect x="1022.3" y="99.5" class="st1" width="77.3" height="77.3"/>
				<path class="st0" d="M1082.1,169.2h-42.2c-5.5,0-10-4.5-10-10V117c0-5.5,4.5-10,10-10h42.2c5.5,0,10,4.5,10,10v42.2
					C1092.1,164.7,1087.6,169.2,1082.1,169.2z"/>
				<rect x="1022.3" y="22.2" class="st0" width="77.3" height="77.3"/>
				<path class="st1" d="M1039.9,91.9h42.2c5.5,0,10-4.5,10-10V39.7c0-5.5-4.5-10-10-10h-42.2c-5.5,0-10,4.5-10,10v42.2
					C1029.9,87.4,1034.4,91.9,1039.9,91.9z"/>
				<rect x="945" y="22.2" class="st1" width="77.3" height="77.3"/>
				<path class="st0" d="M962.6,91.9h42.2c5.5,0,10-4.5,10-10V39.7c0-5.5-4.5-10-10-10h-42.2c-5.5,0-10,4.5-10,10v42.2
					C952.6,87.4,957.1,91.9,962.6,91.9z"/>
			</g>
			<g>
				<rect x="1099.6" y="99.5" class="st0" width="77.3" height="77.3"/>
				<path class="st1" d="M1159.4,169.2h-42.2c-5.5,0-10-4.5-10-10V117c0-5.5,4.5-10,10-10h42.2c5.5,0,10,4.5,10,10v42.2
					C1169.4,164.7,1164.9,169.2,1159.4,169.2z"/>
				<rect x="1176.9" y="99.5" class="st1" width="77.3" height="77.3"/>
				<path class="st0" d="M1236.7,169.2h-42.2c-5.5,0-10-4.5-10-10V117c0-5.5,4.5-10,10-10h42.2c5.5,0,10,4.5,10,10v42.2
					C1246.7,164.7,1242.2,169.2,1236.7,169.2z"/>
				<rect x="1176.9" y="22.2" class="st0" width="77.3" height="77.3"/>
				<path class="st1" d="M1194.5,91.9h42.2c5.5,0,10-4.5,10-10V39.7c0-5.5-4.5-10-10-10h-42.2c-5.5,0-10,4.5-10,10v42.2
					C1184.5,87.4,1189,91.9,1194.5,91.9z"/>
				<rect x="1099.6" y="22.2" class="st1" width="77.3" height="77.3"/>
				<path class="st0" d="M1117.2,91.9h42.2c5.5,0,10-4.5,10-10V39.7c0-5.5-4.5-10-10-10h-42.2c-5.5,0-10,4.5-10,10v42.2
					C1107.2,87.4,1111.7,91.9,1117.2,91.9z"/>
			</g>
			<g>
				<rect x="635.8" y="99.5" class="st0" width="77.3" height="77.3"/>
				<path class="st1" d="M695.6,169.2h-42.2c-5.5,0-10-4.5-10-10V117c0-5.5,4.5-10,10-10h42.2c5.5,0,10,4.5,10,10v42.2
					C705.6,164.7,701.1,169.2,695.6,169.2z"/>
				<rect x="713.1" y="99.5" class="st1" width="77.3" height="77.3"/>
				<path class="st0" d="M772.9,169.2h-42.2c-5.5,0-10-4.5-10-10V117c0-5.5,4.5-10,10-10h42.2c5.5,0,10,4.5,10,10v42.2
					C782.9,164.7,778.4,169.2,772.9,169.2z"/>
				<rect x="713.1" y="22.2" class="st0" width="77.3" height="77.3"/>
				<path class="st1" d="M730.7,91.9h42.2c5.5,0,10-4.5,10-10V39.7c0-5.5-4.5-10-10-10h-42.2c-5.5,0-10,4.5-10,10v42.2
					C720.7,87.4,725.2,91.9,730.7,91.9z"/>
				<rect x="635.8" y="22.2" class="st1" width="77.3" height="77.3"/>
				<path class="st0" d="M653.4,91.9h42.2c5.5,0,10-4.5,10-10V39.7c0-5.5-4.5-10-10-10h-42.2c-5.5,0-10,4.5-10,10v42.2
					C643.4,87.4,647.9,91.9,653.4,91.9z"/>
			</g>
			<g>
				<rect x="790.4" y="99.5" class="st0" width="77.3" height="77.3"/>
				<path class="st1" d="M850.2,169.2H808c-5.5,0-10-4.5-10-10V117c0-5.5,4.5-10,10-10h42.2c5.5,0,10,4.5,10,10v42.2
					C860.2,164.7,855.7,169.2,850.2,169.2z"/>
				<rect x="867.7" y="99.5" class="st1" width="77.3" height="77.3"/>
				<path class="st0" d="M927.5,169.2h-42.2c-5.5,0-10-4.5-10-10V117c0-5.5,4.5-10,10-10h42.2c5.5,0,10,4.5,10,10v42.2
					C937.5,164.7,933,169.2,927.5,169.2z"/>
				<rect x="867.7" y="22.2" class="st0" width="77.3" height="77.3"/>
				<path class="st1" d="M885.3,91.9h42.2c5.5,0,10-4.5,10-10V39.7c0-5.5-4.5-10-10-10h-42.2c-5.5,0-10,4.5-10,10v42.2
					C875.3,87.4,879.8,91.9,885.3,91.9z"/>
				<rect x="790.4" y="22.2" class="st1" width="77.3" height="77.3"/>
				<path class="st0" d="M808,91.9h42.2c5.5,0,10-4.5,10-10V39.7c0-5.5-4.5-10-10-10H808c-5.5,0-10,4.5-10,10v42.2
					C798,87.4,802.5,91.9,808,91.9z"/>
			</g>
			<g>
				<rect x="326.6" y="563.3" class="st0" width="77.3" height="77.3"/>
				<path class="st1" d="M386.4,633h-42.2c-5.5,0-10-4.5-10-10v-42.2c0-5.5,4.5-10,10-10h42.2c5.5,0,10,4.5,10,10V623
					C396.4,628.5,391.9,633,386.4,633z"/>
				<rect x="403.9" y="563.3" class="st1" width="77.3" height="77.3"/>
				<path class="st0" d="M463.7,633h-42.2c-5.5,0-10-4.5-10-10v-42.2c0-5.5,4.5-10,10-10h42.2c5.5,0,10,4.5,10,10V623
					C473.7,628.5,469.2,633,463.7,633z"/>
				<rect x="403.9" y="486" class="st0" width="77.3" height="77.3"/>
				<path class="st1" d="M421.5,555.7h42.2c5.5,0,10-4.5,10-10v-42.2c0-5.5-4.5-10-10-10h-42.2c-5.5,0-10,4.5-10,10v42.2
					C411.5,551.2,416,555.7,421.5,555.7z"/>
				<rect x="326.6" y="486" class="st1" width="77.3" height="77.3"/>
				<path class="st0" d="M344.2,555.7h42.2c5.5,0,10-4.5,10-10v-42.2c0-5.5-4.5-10-10-10h-42.2c-5.5,0-10,4.5-10,10v42.2
					C334.2,551.2,338.7,555.7,344.2,555.7z"/>
			</g>
			<g>
				<rect x="481.2" y="563.3" class="st0" width="77.3" height="77.3"/>
				<path class="st1" d="M541,633h-42.2c-5.5,0-10-4.5-10-10v-42.2c0-5.5,4.5-10,10-10H541c5.5,0,10,4.5,10,10V623
					C551,628.5,546.5,633,541,633z"/>
				<rect x="558.5" y="563.3" class="st1" width="77.3" height="77.3"/>
				<path class="st0" d="M618.3,633h-42.2c-5.5,0-10-4.5-10-10v-42.2c0-5.5,4.5-10,10-10h42.2c5.5,0,10,4.5,10,10V623
					C628.3,628.5,623.8,633,618.3,633z"/>
				<rect x="558.5" y="486" class="st0" width="77.3" height="77.3"/>
				<path class="st1" d="M576.1,555.7h42.2c5.5,0,10-4.5,10-10v-42.2c0-5.5-4.5-10-10-10h-42.2c-5.5,0-10,4.5-10,10v42.2
					C566.1,551.2,570.6,555.7,576.1,555.7z"/>
				<rect x="481.2" y="486" class="st1" width="77.3" height="77.3"/>
				<path class="st0" d="M498.8,555.7H541c5.5,0,10-4.5,10-10v-42.2c0-5.5-4.5-10-10-10h-42.2c-5.5,0-10,4.5-10,10v42.2
					C488.8,551.2,493.3,555.7,498.8,555.7z"/>
			</g>
			<g>
				<rect x="17.4" y="563.3" class="st0" width="77.3" height="77.3"/>
				<path class="st1" d="M77.2,633H35c-5.5,0-10-4.5-10-10v-42.2c0-5.5,4.5-10,10-10h42.2c5.5,0,10,4.5,10,10V623
					C87.2,628.5,82.7,633,77.2,633z"/>
				<rect x="94.7" y="563.3" class="st1" width="77.3" height="77.3"/>
				<path class="st0" d="M154.5,633h-42.2c-5.5,0-10-4.5-10-10v-42.2c0-5.5,4.5-10,10-10h42.2c5.5,0,10,4.5,10,10V623
					C164.5,628.5,160,633,154.5,633z"/>
				<rect x="94.7" y="486" class="st0" width="77.3" height="77.3"/>
				<path class="st1" d="M112.3,555.7h42.2c5.5,0,10-4.5,10-10v-42.2c0-5.5-4.5-10-10-10h-42.2c-5.5,0-10,4.5-10,10v42.2
					C102.3,551.2,106.8,555.7,112.3,555.7z"/>
				<rect x="17.4" y="486" class="st1" width="77.3" height="77.3"/>
				<path class="st0" d="M35,555.7h42.2c5.5,0,10-4.5,10-10v-42.2c0-5.5-4.5-10-10-10H35c-5.5,0-10,4.5-10,10v42.2
					C25,551.2,29.5,555.7,35,555.7z"/>
			</g>
			<g>
				<rect x="172" y="563.3" class="st0" width="77.3" height="77.3"/>
				<path class="st1" d="M231.8,633h-42.2c-5.5,0-10-4.5-10-10v-42.2c0-5.5,4.5-10,10-10h42.2c5.5,0,10,4.5,10,10V623
					C241.8,628.5,237.3,633,231.8,633z"/>
				<rect x="249.3" y="563.3" class="st1" width="77.3" height="77.3"/>
				<path class="st0" d="M309.1,633h-42.2c-5.5,0-10-4.5-10-10v-42.2c0-5.5,4.5-10,10-10h42.2c5.5,0,10,4.5,10,10V623
					C319.1,628.5,314.6,633,309.1,633z"/>
				<rect x="249.3" y="486" class="st0" width="77.3" height="77.3"/>
				<path class="st1" d="M266.9,555.7h42.2c5.5,0,10-4.5,10-10v-42.2c0-5.5-4.5-10-10-10h-42.2c-5.5,0-10,4.5-10,10v42.2
					C256.9,551.2,261.4,555.7,266.9,555.7z"/>
				<rect x="172" y="486" class="st1" width="77.3" height="77.3"/>
				<path class="st0" d="M189.6,555.7h42.2c5.5,0,10-4.5,10-10v-42.2c0-5.5-4.5-10-10-10h-42.2c-5.5,0-10,4.5-10,10v42.2
					C179.6,551.2,184.1,555.7,189.6,555.7z"/>
			</g>
			<g>
				<rect x="326.6" y="408.7" class="st0" width="77.3" height="77.3"/>
				<path class="st1" d="M386.4,478.4h-42.2c-5.5,0-10-4.5-10-10v-42.2c0-5.5,4.5-10,10-10h42.2c5.5,0,10,4.5,10,10v42.2
					C396.4,473.9,391.9,478.4,386.4,478.4z"/>
				<rect x="403.9" y="408.7" class="st1" width="77.3" height="77.3"/>
				<path class="st0" d="M463.7,478.4h-42.2c-5.5,0-10-4.5-10-10v-42.2c0-5.5,4.5-10,10-10h42.2c5.5,0,10,4.5,10,10v42.2
					C473.7,473.9,469.2,478.4,463.7,478.4z"/>
				<rect x="403.9" y="331.4" class="st0" width="77.3" height="77.3"/>
				<path class="st1" d="M421.5,401.1h42.2c5.5,0,10-4.5,10-10v-42.2c0-5.5-4.5-10-10-10h-42.2c-5.5,0-10,4.5-10,10v42.2
					C411.5,396.6,416,401.1,421.5,401.1z"/>
				<rect x="326.6" y="331.4" class="st1" width="77.3" height="77.3"/>
				<path class="st0" d="M344.2,401.1h42.2c5.5,0,10-4.5,10-10v-42.2c0-5.5-4.5-10-10-10h-42.2c-5.5,0-10,4.5-10,10v42.2
					C334.2,396.6,338.7,401.1,344.2,401.1z"/>
			</g>
			<g>
				<rect x="481.2" y="408.7" class="st0" width="77.3" height="77.3"/>
				<path class="st1" d="M541,478.4h-42.2c-5.5,0-10-4.5-10-10v-42.2c0-5.5,4.5-10,10-10H541c5.5,0,10,4.5,10,10v42.2
					C551,473.9,546.5,478.4,541,478.4z"/>
				<rect x="558.5" y="408.7" class="st1" width="77.3" height="77.3"/>
				<path class="st0" d="M618.3,478.4h-42.2c-5.5,0-10-4.5-10-10v-42.2c0-5.5,4.5-10,10-10h42.2c5.5,0,10,4.5,10,10v42.2
					C628.3,473.9,623.8,478.4,618.3,478.4z"/>
				<rect x="558.5" y="331.4" class="st0" width="77.3" height="77.3"/>
				<path class="st1" d="M576.1,401.1h42.2c5.5,0,10-4.5,10-10v-42.2c0-5.5-4.5-10-10-10h-42.2c-5.5,0-10,4.5-10,10v42.2
					C566.1,396.6,570.6,401.1,576.1,401.1z"/>
				<rect x="481.2" y="331.4" class="st1" width="77.3" height="77.3"/>
				<path class="st0" d="M498.8,401.1H541c5.5,0,10-4.5,10-10v-42.2c0-5.5-4.5-10-10-10h-42.2c-5.5,0-10,4.5-10,10v42.2
					C488.8,396.6,493.3,401.1,498.8,401.1z"/>
			</g>
			<g>
				<rect x="17.4" y="408.7" class="st0" width="77.3" height="77.3"/>
				<path class="st1" d="M77.2,478.4H35c-5.5,0-10-4.5-10-10v-42.2c0-5.5,4.5-10,10-10h42.2c5.5,0,10,4.5,10,10v42.2
					C87.2,473.9,82.7,478.4,77.2,478.4z"/>
				<rect x="94.7" y="408.7" class="st1" width="77.3" height="77.3"/>
				<path class="st0" d="M154.5,478.4h-42.2c-5.5,0-10-4.5-10-10v-42.2c0-5.5,4.5-10,10-10h42.2c5.5,0,10,4.5,10,10v42.2
					C164.5,473.9,160,478.4,154.5,478.4z"/>
				<rect x="94.7" y="331.4" class="st0" width="77.3" height="77.3"/>
				<path class="st1" d="M112.3,401.1h42.2c5.5,0,10-4.5,10-10v-42.2c0-5.5-4.5-10-10-10h-42.2c-5.5,0-10,4.5-10,10v42.2
					C102.3,396.6,106.8,401.1,112.3,401.1z"/>
				<rect x="17.4" y="331.4" class="st1" width="77.3" height="77.3"/>
				<path class="st0" d="M35,401.1h42.2c5.5,0,10-4.5,10-10v-42.2c0-5.5-4.5-10-10-10H35c-5.5,0-10,4.5-10,10v42.2
					C25,396.6,29.5,401.1,35,401.1z"/>
			</g>
			<g>
				<rect x="172" y="408.7" class="st0" width="77.3" height="77.3"/>
				<path class="st1" d="M231.8,478.4h-42.2c-5.5,0-10-4.5-10-10v-42.2c0-5.5,4.5-10,10-10h42.2c5.5,0,10,4.5,10,10v42.2
					C241.8,473.9,237.3,478.4,231.8,478.4z"/>
				<rect x="249.3" y="408.7" class="st1" width="77.3" height="77.3"/>
				<path class="st0" d="M309.1,478.4h-42.2c-5.5,0-10-4.5-10-10v-42.2c0-5.5,4.5-10,10-10h42.2c5.5,0,10,4.5,10,10v42.2
					C319.1,473.9,314.6,478.4,309.1,478.4z"/>
				<rect x="249.3" y="331.4" class="st0" width="77.3" height="77.3"/>
				<path class="st1" d="M266.9,401.1h42.2c5.5,0,10-4.5,10-10v-42.2c0-5.5-4.5-10-10-10h-42.2c-5.5,0-10,4.5-10,10v42.2
					C256.9,396.6,261.4,401.1,266.9,401.1z"/>
				<rect x="172" y="331.4" class="st1" width="77.3" height="77.3"/>
				<path class="st0" d="M189.6,401.1h42.2c5.5,0,10-4.5,10-10v-42.2c0-5.5-4.5-10-10-10h-42.2c-5.5,0-10,4.5-10,10v42.2
					C179.6,396.6,184.1,401.1,189.6,401.1z"/>
			</g>
			<g>
				<rect x="326.6" y="254.1" class="st0" width="77.3" height="77.3"/>
				<path class="st1" d="M386.4,323.8h-42.2c-5.5,0-10-4.5-10-10v-42.2c0-5.5,4.5-10,10-10h42.2c5.5,0,10,4.5,10,10v42.2
					C396.4,319.3,391.9,323.8,386.4,323.8z"/>
				<rect x="403.9" y="254.1" class="st1" width="77.3" height="77.3"/>
				<path class="st0" d="M463.7,323.8h-42.2c-5.5,0-10-4.5-10-10v-42.2c0-5.5,4.5-10,10-10h42.2c5.5,0,10,4.5,10,10v42.2
					C473.7,319.3,469.2,323.8,463.7,323.8z"/>
				<rect x="403.9" y="176.8" class="st0" width="77.3" height="77.3"/>
				<path class="st1" d="M421.5,246.5h42.2c5.5,0,10-4.5,10-10v-42.2c0-5.5-4.5-10-10-10h-42.2c-5.5,0-10,4.5-10,10v42.2
					C411.5,242,416,246.5,421.5,246.5z"/>
				<rect x="326.6" y="176.8" class="st1" width="77.3" height="77.3"/>
				<path class="st0" d="M344.2,246.5h42.2c5.5,0,10-4.5,10-10v-42.2c0-5.5-4.5-10-10-10h-42.2c-5.5,0-10,4.5-10,10v42.2
					C334.2,242,338.7,246.5,344.2,246.5z"/>
			</g>
			<g>
				<rect x="481.2" y="254.1" class="st0" width="77.3" height="77.3"/>
				<path class="st1" d="M541,323.8h-42.2c-5.5,0-10-4.5-10-10v-42.2c0-5.5,4.5-10,10-10H541c5.5,0,10,4.5,10,10v42.2
					C551,319.3,546.5,323.8,541,323.8z"/>
				<rect x="558.5" y="254.1" class="st1" width="77.3" height="77.3"/>
				<path class="st0" d="M618.3,323.8h-42.2c-5.5,0-10-4.5-10-10v-42.2c0-5.5,4.5-10,10-10h42.2c5.5,0,10,4.5,10,10v42.2
					C628.3,319.3,623.8,323.8,618.3,323.8z"/>
				<rect x="558.5" y="176.8" class="st0" width="77.3" height="77.3"/>
				<path class="st1" d="M576.1,246.5h42.2c5.5,0,10-4.5,10-10v-42.2c0-5.5-4.5-10-10-10h-42.2c-5.5,0-10,4.5-10,10v42.2
					C566.1,242,570.6,246.5,576.1,246.5z"/>
				<rect x="481.2" y="176.8" class="st1" width="77.3" height="77.3"/>
				<path class="st0" d="M498.8,246.5H541c5.5,0,10-4.5,10-10v-42.2c0-5.5-4.5-10-10-10h-42.2c-5.5,0-10,4.5-10,10v42.2
					C488.8,242,493.3,246.5,498.8,246.5z"/>
			</g>
			<g>
				<rect x="17.4" y="254.1" class="st0" width="77.3" height="77.3"/>
				<path class="st1" d="M77.2,323.8H35c-5.5,0-10-4.5-10-10v-42.2c0-5.5,4.5-10,10-10h42.2c5.5,0,10,4.5,10,10v42.2
					C87.2,319.3,82.7,323.8,77.2,323.8z"/>
				<rect x="94.7" y="254.1" class="st1" width="77.3" height="77.3"/>
				<path class="st0" d="M154.5,323.8h-42.2c-5.5,0-10-4.5-10-10v-42.2c0-5.5,4.5-10,10-10h42.2c5.5,0,10,4.5,10,10v42.2
					C164.5,319.3,160,323.8,154.5,323.8z"/>
				<rect x="94.7" y="176.8" class="st0" width="77.3" height="77.3"/>
				<path class="st1" d="M112.3,246.5h42.2c5.5,0,10-4.5,10-10v-42.2c0-5.5-4.5-10-10-10h-42.2c-5.5,0-10,4.5-10,10v42.2
					C102.3,242,106.8,246.5,112.3,246.5z"/>
				<rect x="17.4" y="176.8" class="st1" width="77.3" height="77.3"/>
				<path class="st0" d="M35,246.5h42.2c5.5,0,10-4.5,10-10v-42.2c0-5.5-4.5-10-10-10H35c-5.5,0-10,4.5-10,10v42.2
					C25,242,29.5,246.5,35,246.5z"/>
			</g>
			<g>
				<rect x="172" y="254.1" class="st0" width="77.3" height="77.3"/>
				<path class="st1" d="M231.8,323.8h-42.2c-5.5,0-10-4.5-10-10v-42.2c0-5.5,4.5-10,10-10h42.2c5.5,0,10,4.5,10,10v42.2
					C241.8,319.3,237.3,323.8,231.8,323.8z"/>
				<rect x="249.3" y="254.1" class="st1" width="77.3" height="77.3"/>
				<path class="st0" d="M309.1,323.8h-42.2c-5.5,0-10-4.5-10-10v-42.2c0-5.5,4.5-10,10-10h42.2c5.5,0,10,4.5,10,10v42.2
					C319.1,319.3,314.6,323.8,309.1,323.8z"/>
				<rect x="249.3" y="176.8" class="st0" width="77.3" height="77.3"/>
				<path class="st1" d="M266.9,246.5h42.2c5.5,0,10-4.5,10-10v-42.2c0-5.5-4.5-10-10-10h-42.2c-5.5,0-10,4.5-10,10v42.2
					C256.9,242,261.4,246.5,266.9,246.5z"/>
				<rect x="172" y="176.8" class="st1" width="77.3" height="77.3"/>
				<path class="st0" d="M189.6,246.5h42.2c5.5,0,10-4.5,10-10v-42.2c0-5.5-4.5-10-10-10h-42.2c-5.5,0-10,4.5-10,10v42.2
					C179.6,242,184.1,246.5,189.6,246.5z"/>
			</g>
			<g>
				<rect x="326.6" y="99.5" class="st0" width="77.3" height="77.3"/>
				<path class="st1" d="M386.4,169.2h-42.2c-5.5,0-10-4.5-10-10V117c0-5.5,4.5-10,10-10h42.2c5.5,0,10,4.5,10,10v42.2
					C396.4,164.7,391.9,169.2,386.4,169.2z"/>
				<rect x="403.9" y="99.5" class="st1" width="77.3" height="77.3"/>
				<path class="st0" d="M463.7,169.2h-42.2c-5.5,0-10-4.5-10-10V117c0-5.5,4.5-10,10-10h42.2c5.5,0,10,4.5,10,10v42.2
					C473.7,164.7,469.2,169.2,463.7,169.2z"/>
				<rect x="403.9" y="22.2" class="st0" width="77.3" height="77.3"/>
				<path class="st1" d="M421.5,91.9h42.2c5.5,0,10-4.5,10-10V39.7c0-5.5-4.5-10-10-10h-42.2c-5.5,0-10,4.5-10,10v42.2
					C411.5,87.4,416,91.9,421.5,91.9z"/>
				<rect x="326.6" y="22.2" class="st1" width="77.3" height="77.3"/>
				<path class="st0" d="M344.2,91.9h42.2c5.5,0,10-4.5,10-10V39.7c0-5.5-4.5-10-10-10h-42.2c-5.5,0-10,4.5-10,10v42.2
					C334.2,87.4,338.7,91.9,344.2,91.9z"/>
			</g>
			<g>
				<rect x="481.2" y="99.5" class="st0" width="77.3" height="77.3"/>
				<path class="st1" d="M541,169.2h-42.2c-5.5,0-10-4.5-10-10V117c0-5.5,4.5-10,10-10H541c5.5,0,10,4.5,10,10v42.2
					C551,164.7,546.5,169.2,541,169.2z"/>
				<rect x="558.5" y="99.5" class="st1" width="77.3" height="77.3"/>
				<path class="st0" d="M618.3,169.2h-42.2c-5.5,0-10-4.5-10-10V117c0-5.5,4.5-10,10-10h42.2c5.5,0,10,4.5,10,10v42.2
					C628.3,164.7,623.8,169.2,618.3,169.2z"/>
				<rect x="558.5" y="22.2" class="st0" width="77.3" height="77.3"/>
				<path class="st1" d="M576.1,91.9h42.2c5.5,0,10-4.5,10-10V39.7c0-5.5-4.5-10-10-10h-42.2c-5.5,0-10,4.5-10,10v42.2
					C566.1,87.4,570.6,91.9,576.1,91.9z"/>
				<rect x="481.2" y="22.2" class="st1" width="77.3" height="77.3"/>
				<path class="st0" d="M498.8,91.9H541c5.5,0,10-4.5,10-10V39.7c0-5.5-4.5-10-10-10h-42.2c-5.5,0-10,4.5-10,10v42.2
					C488.8,87.4,493.3,91.9,498.8,91.9z"/>
			</g>
			<g>
				<rect x="17.4" y="99.5" class="st0" width="77.3" height="77.3"/>
				<path class="st1" d="M77.2,169.2H35c-5.5,0-10-4.5-10-10V117c0-5.5,4.5-10,10-10h42.2c5.5,0,10,4.5,10,10v42.2
					C87.2,164.7,82.7,169.2,77.2,169.2z"/>
				<rect x="94.7" y="99.5" class="st1" width="77.3" height="77.3"/>
				<path class="st0" d="M154.5,169.2h-42.2c-5.5,0-10-4.5-10-10V117c0-5.5,4.5-10,10-10h42.2c5.5,0,10,4.5,10,10v42.2
					C164.5,164.7,160,169.2,154.5,169.2z"/>
				<rect x="94.7" y="22.2" class="st0" width="77.3" height="77.3"/>
				<path class="st1" d="M112.3,91.9h42.2c5.5,0,10-4.5,10-10V39.7c0-5.5-4.5-10-10-10h-42.2c-5.5,0-10,4.5-10,10v42.2
					C102.3,87.4,106.8,91.9,112.3,91.9z"/>
				<rect x="17.4" y="22.2" class="st1" width="77.3" height="77.3"/>
				<path class="st0" d="M35,91.9h42.2c5.5,0,10-4.5,10-10V39.7c0-5.5-4.5-10-10-10H35c-5.5,0-10,4.5-10,10v42.2
					C25,87.4,29.5,91.9,35,91.9z"/>
			</g>
			<g>
				<rect x="172" y="99.5" class="st0" width="77.3" height="77.3"/>
				<path class="st1" d="M231.8,169.2h-42.2c-5.5,0-10-4.5-10-10V117c0-5.5,4.5-10,10-10h42.2c5.5,0,10,4.5,10,10v42.2
					C241.8,164.7,237.3,169.2,231.8,169.2z"/>
				<rect x="249.3" y="99.5" class="st1" width="77.3" height="77.3"/>
				<path class="st0" d="M309.1,169.2h-42.2c-5.5,0-10-4.5-10-10V117c0-5.5,4.5-10,10-10h42.2c5.5,0,10,4.5,10,10v42.2
					C319.1,164.7,314.6,169.2,309.1,169.2z"/>
				<rect x="249.3" y="22.2" class="st0" width="77.3" height="77.3"/>
				<path class="st1" d="M266.9,91.9h42.2c5.5,0,10-4.5,10-10V39.7c0-5.5-4.5-10-10-10h-42.2c-5.5,0-10,4.5-10,10v42.2
					C256.9,87.4,261.4,91.9,266.9,91.9z"/>
				<rect x="172" y="22.2" class="st1" width="77.3" height="77.3"/>
				<path class="st0" d="M189.6,91.9h42.2c5.5,0,10-4.5,10-10V39.7c0-5.5-4.5-10-10-10h-42.2c-5.5,0-10,4.5-10,10v42.2
					C179.6,87.4,184.1,91.9,189.6,91.9z"/>
			</g>
		</g>
		<rect x="1022.3" y="640.6" class="st0" width="77.3" height="77.3"/>
		<path class="st1" d="M1039.9,710.3h42.2c5.5,0,10-4.5,10-10v-42.2c0-5.5-4.5-10-10-10h-42.2c-5.5,0-10,4.5-10,10v42.2
			C1029.9,705.8,1034.4,710.3,1039.9,710.3z"/>
		<rect x="945" y="640.6" class="st1" width="77.3" height="77.3"/>
		<path class="st0" d="M962.6,710.3h42.2c5.5,0,10-4.5,10-10v-42.2c0-5.5-4.5-10-10-10h-42.2c-5.5,0-10,4.5-10,10v42.2
			C952.6,705.8,957.1,710.3,962.6,710.3z"/>
		<rect x="1099.6" y="640.6" class="st1" width="77.3" height="77.3"/>
		<path class="st0" d="M1117.2,710.3h42.2c5.5,0,10-4.5,10-10v-42.2c0-5.5-4.5-10-10-10h-42.2c-5.5,0-10,4.5-10,10v42.2
			C1107.2,705.8,1111.7,710.3,1117.2,710.3z"/>
		<rect x="713.1" y="640.6" class="st0" width="77.3" height="77.3"/>
		<path class="st1" d="M730.7,710.3h42.2c5.5,0,10-4.5,10-10v-42.2c0-5.5-4.5-10-10-10h-42.2c-5.5,0-10,4.5-10,10v42.2
			C720.7,705.8,725.2,710.3,730.7,710.3z"/>
		<rect x="635.8" y="640.6" class="st1" width="77.3" height="77.3"/>
		<path class="st0" d="M653.4,710.3h42.2c5.5,0,10-4.5,10-10v-42.2c0-5.5-4.5-10-10-10h-42.2c-5.5,0-10,4.5-10,10v42.2
			C643.4,705.8,647.9,710.3,653.4,710.3z"/>
		<rect x="867.7" y="640.6" class="st0" width="77.3" height="77.3"/>
		<path class="st1" d="M885.3,710.3h42.2c5.5,0,10-4.5,10-10v-42.2c0-5.5-4.5-10-10-10h-42.2c-5.5,0-10,4.5-10,10v42.2
			C875.3,705.8,879.8,710.3,885.3,710.3z"/>
		<rect x="790.4" y="640.6" class="st1" width="77.3" height="77.3"/>
		<path class="st0" d="M808,710.3h42.2c5.5,0,10-4.5,10-10v-42.2c0-5.5-4.5-10-10-10H808c-5.5,0-10,4.5-10,10v42.2
			C798,705.8,802.5,710.3,808,710.3z"/>
		<rect x="403.9" y="640.6" class="st0" width="77.3" height="77.3"/>
		<path class="st1" d="M421.5,710.3h42.2c5.5,0,10-4.5,10-10v-42.2c0-5.5-4.5-10-10-10h-42.2c-5.5,0-10,4.5-10,10v42.2
			C411.5,705.8,416,710.3,421.5,710.3z"/>
		<rect x="326.6" y="640.6" class="st1" width="77.3" height="77.3"/>
		<path class="st0" d="M344.2,710.3h42.2c5.5,0,10-4.5,10-10v-42.2c0-5.5-4.5-10-10-10h-42.2c-5.5,0-10,4.5-10,10v42.2
			C334.2,705.8,338.7,710.3,344.2,710.3z"/>
		<rect x="558.5" y="640.6" class="st0" width="77.3" height="77.3"/>
		<path class="st1" d="M576.1,710.3h42.2c5.5,0,10-4.5,10-10v-42.2c0-5.5-4.5-10-10-10h-42.2c-5.5,0-10,4.5-10,10v42.2
			C566.1,705.8,570.6,710.3,576.1,710.3z"/>
		<rect x="481.2" y="640.6" class="st1" width="77.3" height="77.3"/>
		<path class="st0" d="M498.8,710.3H541c5.5,0,10-4.5,10-10v-42.2c0-5.5-4.5-10-10-10h-42.2c-5.5,0-10,4.5-10,10v42.2
			C488.8,705.8,493.3,710.3,498.8,710.3z"/>
		<rect x="94.7" y="640.6" class="st0" width="77.3" height="77.3"/>
		<path class="st1" d="M112.3,710.3h42.2c5.5,0,10-4.5,10-10v-42.2c0-5.5-4.5-10-10-10h-42.2c-5.5,0-10,4.5-10,10v42.2
			C102.3,705.8,106.8,710.3,112.3,710.3z"/>
		<rect x="249.3" y="640.6" class="st0" width="77.3" height="77.3"/>
		<path class="st1" d="M266.9,710.3h42.2c5.5,0,10-4.5,10-10v-42.2c0-5.5-4.5-10-10-10h-42.2c-5.5,0-10,4.5-10,10v42.2
			C256.9,705.8,261.4,710.3,266.9,710.3z"/>
		<rect x="172" y="640.6" class="st1" width="77.3" height="77.3"/>
		<path class="st0" d="M189.6,710.3h42.2c5.5,0,10-4.5,10-10v-42.2c0-5.5-4.5-10-10-10h-42.2c-5.5,0-10,4.5-10,10v42.2
			C179.6,705.8,184.1,710.3,189.6,710.3z"/>
	</g>
	<path class="st2" d="M1220-0.4H60c-33,0-60,27-60,60v600c0,33,27,60,60,60h1160c33,0,60-27,60-60v-600C1280,26.6,1253-0.4,1220-0.4
		z M640.4,719h-1H179.2c0,0,7.6-73.9-47.3-73.5c-33.5,0.2-60-27-60-60V134c0-33,27-60,60-60h507.5h1h507.5c33,0,60,27,60,60v451.5
		c0,33-26.5,60.2-60,60c-54.9-0.4-47.3,73.5-47.3,73.5H640.4z"/>
</g>
<g>
	<rect x="2120.2" y="-2766.8" class="st0" width="420" height="420"/>
	<path class="st1" d="M2489.2-2387.8h-318c-5.5,0-10-4.5-10-10v-318c0-5.5,4.5-10,10-10h318c5.5,0,10,4.5,10,10v318
		C2499.2-2392.3,2494.7-2387.8,2489.2-2387.8z"/>
	<rect x="2540.3" y="-2766.8" class="st1" width="420" height="420"/>
	<path class="st0" d="M2909.3-2387.8h-318c-5.5,0-10-4.5-10-10v-318c0-5.5,4.5-10,10-10h318c5.5,0,10,4.5,10,10v318
		C2919.3-2392.3,2914.8-2387.8,2909.3-2387.8z"/>
	<rect x="2540.3" y="-3186.8" class="st0" width="420" height="420"/>
	<path class="st1" d="M2591.3-2807.8h318c5.5,0,10-4.5,10-10v-318c0-5.5-4.5-10-10-10h-318c-5.5,0-10,4.5-10,10v318
		C2581.3-2812.3,2585.8-2807.8,2591.3-2807.8z"/>
	<rect x="2120.2" y="-3186.8" class="st1" width="420" height="420"/>
	<path class="st0" d="M2171.2-2807.8h318c5.5,0,10-4.5,10-10v-318c0-5.5-4.5-10-10-10h-318c-5.5,0-10,4.5-10,10v318
		C2161.2-2812.3,2165.7-2807.8,2171.2-2807.8z"/>
</g>
<path class="st3" d="M177.2,686.1"/>
<g>
	<g>
		<path class="st4" d="M133.5,671.1c-10.9,0-21.8,0-32.7,0c-1.7,0-3.4,0-5.1,0c-1,0-2,0-3-0.1c-1.4-0.1-2.8-0.1-4.2-0.3
			c1.9,0.3-1.2-0.3-1.7-0.4c-8.8-1.9-16.1-5.6-22.2-11.3c-9.6-9.1-14.2-20.5-14.4-33.2c0-2.3,0-4.6,0-6.8c0-33.5,0-66.9,0-100.4
			c0-55.3,0-110.6,0-165.8c0-54.3,0-108.5,0-162.8c0-30.4,0-60.8,0-91.2c0-3.4,0-7.8,0.3-10c1.1-7.2,5-16.1,9.1-21.3
			c1.5-1.8,3.2-3.6,4.9-5.2c0.7-0.6,4.3-3.6,3.1-2.7c1.9-1.4,4-2.7,6.1-3.9c2.7-1.5,4.6-2.3,6-2.8c7.9-2.6,13.5-2.7,22-2.7
			c20.6,0,41.3,0,61.9,0c38.1,0,76.3,0,114.4,0c50.2,0,100.5,0,150.7,0c56.9,0,113.9,0,170.8,0c58.2,0,116.5,0,174.7,0
			c54.1,0,108.3,0,162.4,0c44.6,0,89.3,0,133.9,0c29.8,0,59.5,0,89.3,0c7.6,0,15.2,0,22.8,0c1.7,0,3.4,0,5.1,0
			c6.9,0,13.6,1.3,18.8,3.7c1.9,0.9,3.8,1.9,5.6,3c2.5,1.5,3.6,2.4,4.7,3.3c3.3,2.8,6.9,6.8,8.3,8.8c5.2,7.6,7.9,15.3,8.4,22.9
			c0.1,2.5,0.1,5.1,0.1,7.6c0,11.1,0,22.3,0,33.4c0,45.6,0,91.2,0,136.8c0,57.6,0,115.3,0,172.9c0,46.8,0,93.7,0,140.5
			c0,12.2,0,24.5,0,36.7c0,2.1,0,4.2,0,6.2c-0.1,6.4-0.7,10.4-3.3,17.2c0.5-1.4-1.4,2.9-1.8,3.7c-1.1,2.1-2.4,4.2-3.8,6.1
			c-1.2,1.7-5.8,6.6-9,9.1c1.2-0.9-2.7,1.8-3.5,2.3c-2,1.2-4.2,2.4-6.4,3.4c-2.7,1.2,3.2-1-1.7,0.6c-1,0.3-2.1,0.7-3.1,1
			c-2.1,0.6-4.2,1.1-6.4,1.5c2.1-0.3-1.3,0.1-1.8,0.2c-1.4,0.1-2.8,0.1-4.2,0.2c-0.3,0-0.5,0-0.8,0c-2,0-4.1,0-6.1,0
			c-10.5,0-20.9,0-31.4,0c-19.3,0-19.3,30,0,30c28.1,0,58.2,3.5,82.2-14.4c21.1-15.8,31-39.1,31-65.1c0-32.1,0-64.1,0-96.2
			c0-55.6,0-111.1,0-166.7c0-55.5,0-110.9,0-166.4c0-31.2,0-62.4,0-93.6c0-27.4-12-52.6-35.6-67.4c-13.3-8.4-28.5-11.2-43.9-11.2
			c-19.7,0-39.5,0-59.2,0c-38.1,0-76.3,0-114.4,0c-50.7,0-101.3,0-152,0c-57.9,0-115.7,0-173.6,0c-59.2,0-118.4,0-177.7,0
			c-54.7,0-109.5,0-164.2,0c-45,0-89.9,0-134.9,0c-29.3,0-58.6,0-87.9,0c-23.7,0-47.1-1.4-67.8,13.5C30.8,49.4,20.3,73,20.3,99.5
			c0,11.4,0,22.9,0,34.3c0,46.8,0,93.6,0,140.4c0,58.4,0,116.8,0,175.2c0,46.5,0,92.9,0,139.4c0,11.1,0,22.3,0,33.4
			c0,27.3,11.7,52.1,34.9,67.2c23.3,15.1,51.9,11.7,78.3,11.7C152.9,701.1,152.9,671.1,133.5,671.1L133.5,671.1z"/>
	</g>
</g>
</svg>
